<mxfile host="app.diagrams.net" modified="2021-01-30T01:31:16.773Z" agent="5.0 (Macintosh; Intel Mac OS X 10_15_6) AppleWebKit/605.1.15 (KHTML, like Gecko) Version/14.0.2 Safari/605.1.15" etag="xWcjaoIEW3L1oaHK1K_o" version="14.2.9" type="github" pages="3">
  <diagram id="Ux2TjKdfNsYwPgCQKGIC" name="H-Bot">
    <mxGraphModel dx="946" dy="645" grid="1" gridSize="10" guides="1" tooltips="1" connect="1" arrows="1" fold="1" page="1" pageScale="1" pageWidth="850" pageHeight="1100" math="0" shadow="0">
      <root>
        <mxCell id="iKn1sgR2FlLDsDJ27ltW-0" />
        <mxCell id="iKn1sgR2FlLDsDJ27ltW-1" parent="iKn1sgR2FlLDsDJ27ltW-0" />
        <mxCell id="iKn1sgR2FlLDsDJ27ltW-34" value="" style="rounded=1;whiteSpace=wrap;html=1;fillColor=#e1d5e7;strokeColor=#9673a6;rotation=90;" parent="iKn1sgR2FlLDsDJ27ltW-1" vertex="1">
          <mxGeometry x="464" y="275" width="305" height="30.93" as="geometry" />
        </mxCell>
        <mxCell id="iKn1sgR2FlLDsDJ27ltW-2" value="" style="rounded=1;whiteSpace=wrap;html=1;fillColor=#e1d5e7;strokeColor=#9673a6;" parent="iKn1sgR2FlLDsDJ27ltW-1" vertex="1">
          <mxGeometry x="95" y="260" width="500" height="40" as="geometry" />
        </mxCell>
        <mxCell id="iKn1sgR2FlLDsDJ27ltW-3" value="" style="rounded=1;whiteSpace=wrap;html=1;fillColor=#e1d5e7;strokeColor=#9673a6;rotation=90;" parent="iKn1sgR2FlLDsDJ27ltW-1" vertex="1">
          <mxGeometry x="-80" y="270" width="305" height="30.93" as="geometry" />
        </mxCell>
        <mxCell id="iKn1sgR2FlLDsDJ27ltW-4" value="" style="rounded=1;whiteSpace=wrap;html=1;fillColor=#dae8fc;strokeColor=#6c8ebf;rotation=90;" parent="iKn1sgR2FlLDsDJ27ltW-1" vertex="1">
          <mxGeometry x="50" y="260" width="80" height="40" as="geometry" />
        </mxCell>
        <mxCell id="iKn1sgR2FlLDsDJ27ltW-5" value="" style="rounded=1;whiteSpace=wrap;html=1;fillColor=#ffe6cc;strokeColor=#d79b00;labelPosition=center;verticalLabelPosition=middle;align=center;verticalAlign=middle;direction=south;" parent="iKn1sgR2FlLDsDJ27ltW-1" vertex="1">
          <mxGeometry x="40" y="40" width="80" height="80" as="geometry" />
        </mxCell>
        <mxCell id="iKn1sgR2FlLDsDJ27ltW-6" value="" style="endArrow=none;html=1;exitX=1;exitY=0.5;exitDx=0;exitDy=0;entryX=0;entryY=0.5;entryDx=0;entryDy=0;strokeWidth=2;" parent="iKn1sgR2FlLDsDJ27ltW-1" source="iKn1sgR2FlLDsDJ27ltW-15" target="iKn1sgR2FlLDsDJ27ltW-16" edge="1">
          <mxGeometry width="50" height="50" relative="1" as="geometry">
            <mxPoint x="220" y="190" as="sourcePoint" />
            <mxPoint x="630" y="190" as="targetPoint" />
          </mxGeometry>
        </mxCell>
        <mxCell id="iKn1sgR2FlLDsDJ27ltW-7" style="rounded=0;orthogonalLoop=1;jettySize=auto;html=1;exitX=1;exitY=0.5;exitDx=0;exitDy=0;entryX=0;entryY=0.5;entryDx=0;entryDy=0;endArrow=none;endFill=0;strokeWidth=2;" parent="iKn1sgR2FlLDsDJ27ltW-1" source="iKn1sgR2FlLDsDJ27ltW-20" target="iKn1sgR2FlLDsDJ27ltW-17" edge="1">
          <mxGeometry relative="1" as="geometry" />
        </mxCell>
        <mxCell id="iKn1sgR2FlLDsDJ27ltW-8" value="" style="endArrow=none;html=1;exitX=0.5;exitY=0;exitDx=0;exitDy=0;strokeWidth=2;entryX=0.5;entryY=0;entryDx=0;entryDy=0;" parent="iKn1sgR2FlLDsDJ27ltW-1" source="iKn1sgR2FlLDsDJ27ltW-17" target="iKn1sgR2FlLDsDJ27ltW-19" edge="1">
          <mxGeometry width="50" height="50" relative="1" as="geometry">
            <mxPoint x="360" y="390" as="sourcePoint" />
            <mxPoint x="530" y="360" as="targetPoint" />
          </mxGeometry>
        </mxCell>
        <mxCell id="iKn1sgR2FlLDsDJ27ltW-10" value="" style="endArrow=none;html=1;exitX=1;exitY=0;exitDx=0;exitDy=0;strokeWidth=2;entryX=0.5;entryY=1;entryDx=0;entryDy=0;" parent="iKn1sgR2FlLDsDJ27ltW-1" source="iKn1sgR2FlLDsDJ27ltW-14" target="iKn1sgR2FlLDsDJ27ltW-18" edge="1">
          <mxGeometry width="50" height="50" relative="1" as="geometry">
            <mxPoint x="360" y="390" as="sourcePoint" />
            <mxPoint x="480" y="210" as="targetPoint" />
          </mxGeometry>
        </mxCell>
        <mxCell id="iKn1sgR2FlLDsDJ27ltW-11" value="" style="rounded=1;whiteSpace=wrap;html=1;fillColor=#dae8fc;strokeColor=#6c8ebf;" parent="iKn1sgR2FlLDsDJ27ltW-1" vertex="1">
          <mxGeometry x="285" y="250" width="120" height="60" as="geometry" />
        </mxCell>
        <mxCell id="iKn1sgR2FlLDsDJ27ltW-12" value="" style="rounded=1;whiteSpace=wrap;html=1;fillColor=#d5e8d4;strokeColor=#82b366;" parent="iKn1sgR2FlLDsDJ27ltW-1" vertex="1">
          <mxGeometry x="300" y="240" width="15" height="30" as="geometry" />
        </mxCell>
        <mxCell id="iKn1sgR2FlLDsDJ27ltW-13" value="" style="endArrow=none;html=1;entryX=0;entryY=0;entryDx=0;entryDy=0;exitX=0.5;exitY=1;exitDx=0;exitDy=0;strokeWidth=2;" parent="iKn1sgR2FlLDsDJ27ltW-1" source="iKn1sgR2FlLDsDJ27ltW-16" target="iKn1sgR2FlLDsDJ27ltW-12" edge="1">
          <mxGeometry width="50" height="50" relative="1" as="geometry">
            <mxPoint x="110" y="240" as="sourcePoint" />
            <mxPoint x="610" y="240" as="targetPoint" />
          </mxGeometry>
        </mxCell>
        <mxCell id="iKn1sgR2FlLDsDJ27ltW-14" value="" style="rounded=1;whiteSpace=wrap;html=1;fillColor=#d5e8d4;strokeColor=#82b366;" parent="iKn1sgR2FlLDsDJ27ltW-1" vertex="1">
          <mxGeometry x="378" y="240" width="15" height="30" as="geometry" />
        </mxCell>
        <mxCell id="iKn1sgR2FlLDsDJ27ltW-15" value="" style="ellipse;whiteSpace=wrap;html=1;aspect=fixed;fillColor=#fff2cc;strokeColor=#d6b656;" parent="iKn1sgR2FlLDsDJ27ltW-1" vertex="1">
          <mxGeometry x="65" y="65" width="30" height="30" as="geometry" />
        </mxCell>
        <mxCell id="iKn1sgR2FlLDsDJ27ltW-16" value="" style="ellipse;whiteSpace=wrap;html=1;aspect=fixed;fillColor=#fff2cc;strokeColor=#d6b656;" parent="iKn1sgR2FlLDsDJ27ltW-1" vertex="1">
          <mxGeometry x="95" y="210" width="30" height="30" as="geometry" />
        </mxCell>
        <mxCell id="iKn1sgR2FlLDsDJ27ltW-17" value="" style="ellipse;whiteSpace=wrap;html=1;aspect=fixed;fillColor=#fff2cc;strokeColor=#d6b656;" parent="iKn1sgR2FlLDsDJ27ltW-1" vertex="1">
          <mxGeometry x="95" y="320" width="30" height="30" as="geometry" />
        </mxCell>
        <mxCell id="iKn1sgR2FlLDsDJ27ltW-20" value="" style="ellipse;whiteSpace=wrap;html=1;aspect=fixed;fillColor=#fff2cc;strokeColor=#d6b656;" parent="iKn1sgR2FlLDsDJ27ltW-1" vertex="1">
          <mxGeometry x="65" y="450" width="30" height="30" as="geometry" />
        </mxCell>
        <mxCell id="iKn1sgR2FlLDsDJ27ltW-21" value="Stepper" style="text;html=1;strokeColor=#d79b00;fillColor=#ffe6cc;align=center;verticalAlign=middle;whiteSpace=wrap;rounded=0;" parent="iKn1sgR2FlLDsDJ27ltW-1" vertex="1">
          <mxGeometry x="470.5" y="80" width="80" height="30" as="geometry" />
        </mxCell>
        <mxCell id="iKn1sgR2FlLDsDJ27ltW-22" value="&lt;font style=&quot;font-size: 20px&quot;&gt;&lt;b&gt;H-Bot&lt;br&gt;&lt;/b&gt;&lt;/font&gt;" style="text;html=1;align=center;verticalAlign=middle;whiteSpace=wrap;rounded=0;fillColor=#f5f5f5;strokeColor=#666666;fontColor=#333333;" parent="iKn1sgR2FlLDsDJ27ltW-1" vertex="1">
          <mxGeometry x="235" y="45" width="220" height="70" as="geometry" />
        </mxCell>
        <mxCell id="iKn1sgR2FlLDsDJ27ltW-23" value="Linear Guide" style="text;html=1;strokeColor=#9673a6;fillColor=#e1d5e7;align=center;verticalAlign=middle;whiteSpace=wrap;rounded=0;" parent="iKn1sgR2FlLDsDJ27ltW-1" vertex="1">
          <mxGeometry x="470" y="200" width="80" height="30" as="geometry" />
        </mxCell>
        <mxCell id="iKn1sgR2FlLDsDJ27ltW-24" value="Carriage" style="text;html=1;strokeColor=#6c8ebf;fillColor=#dae8fc;align=center;verticalAlign=middle;whiteSpace=wrap;rounded=0;" parent="iKn1sgR2FlLDsDJ27ltW-1" vertex="1">
          <mxGeometry x="470.5" y="160" width="80" height="30" as="geometry" />
        </mxCell>
        <mxCell id="iKn1sgR2FlLDsDJ27ltW-25" value="Attachments" style="text;html=1;strokeColor=#82b366;fillColor=#d5e8d4;align=center;verticalAlign=middle;whiteSpace=wrap;rounded=0;" parent="iKn1sgR2FlLDsDJ27ltW-1" vertex="1">
          <mxGeometry x="470.5" y="120" width="80" height="30" as="geometry" />
        </mxCell>
        <mxCell id="iKn1sgR2FlLDsDJ27ltW-26" value="" style="endArrow=classic;html=1;strokeWidth=2;" parent="iKn1sgR2FlLDsDJ27ltW-1" edge="1">
          <mxGeometry width="50" height="50" relative="1" as="geometry">
            <mxPoint x="141" y="360" as="sourcePoint" />
            <mxPoint x="271" y="360" as="targetPoint" />
          </mxGeometry>
        </mxCell>
        <mxCell id="iKn1sgR2FlLDsDJ27ltW-27" value="Horizontal" style="edgeLabel;html=1;align=center;verticalAlign=middle;resizable=0;points=[];" parent="iKn1sgR2FlLDsDJ27ltW-26" vertex="1" connectable="0">
          <mxGeometry x="0.3231" y="2" relative="1" as="geometry">
            <mxPoint x="-18.5" as="offset" />
          </mxGeometry>
        </mxCell>
        <mxCell id="iKn1sgR2FlLDsDJ27ltW-28" value="" style="endArrow=classic;html=1;strokeWidth=2;" parent="iKn1sgR2FlLDsDJ27ltW-1" edge="1">
          <mxGeometry width="50" height="50" relative="1" as="geometry">
            <mxPoint x="141" y="360" as="sourcePoint" />
            <mxPoint x="141" y="480" as="targetPoint" />
          </mxGeometry>
        </mxCell>
        <mxCell id="iKn1sgR2FlLDsDJ27ltW-29" value="Vertical" style="edgeLabel;html=1;align=center;verticalAlign=middle;resizable=0;points=[];" parent="iKn1sgR2FlLDsDJ27ltW-28" vertex="1" connectable="0">
          <mxGeometry x="0.4" y="-2" relative="1" as="geometry">
            <mxPoint x="1" y="-27" as="offset" />
          </mxGeometry>
        </mxCell>
        <mxCell id="iKn1sgR2FlLDsDJ27ltW-30" value="" style="endArrow=none;html=1;exitX=0;exitY=0.5;exitDx=0;exitDy=0;entryX=0;entryY=0.5;entryDx=0;entryDy=0;strokeWidth=2;" parent="iKn1sgR2FlLDsDJ27ltW-1" source="iKn1sgR2FlLDsDJ27ltW-15" target="iKn1sgR2FlLDsDJ27ltW-20" edge="1">
          <mxGeometry width="50" height="50" relative="1" as="geometry">
            <mxPoint x="65" y="80" as="sourcePoint" />
            <mxPoint x="65" y="465" as="targetPoint" />
          </mxGeometry>
        </mxCell>
        <mxCell id="iKn1sgR2FlLDsDJ27ltW-31" value="" style="rounded=1;whiteSpace=wrap;html=1;fillColor=#ffe6cc;strokeColor=#d79b00;labelPosition=center;verticalLabelPosition=middle;align=center;verticalAlign=middle;direction=south;" parent="iKn1sgR2FlLDsDJ27ltW-1" vertex="1">
          <mxGeometry x="570" y="40" width="80" height="80" as="geometry" />
        </mxCell>
        <mxCell id="iKn1sgR2FlLDsDJ27ltW-33" value="" style="endArrow=none;html=1;strokeWidth=2;entryX=1;entryY=0.5;entryDx=0;entryDy=0;exitX=1;exitY=0.5;exitDx=0;exitDy=0;" parent="iKn1sgR2FlLDsDJ27ltW-1" source="iKn1sgR2FlLDsDJ27ltW-36" target="iKn1sgR2FlLDsDJ27ltW-32" edge="1">
          <mxGeometry width="50" height="50" relative="1" as="geometry">
            <mxPoint x="640" y="410" as="sourcePoint" />
            <mxPoint x="450" y="380" as="targetPoint" />
          </mxGeometry>
        </mxCell>
        <mxCell id="iKn1sgR2FlLDsDJ27ltW-35" value="" style="rounded=1;whiteSpace=wrap;html=1;fillColor=#dae8fc;strokeColor=#6c8ebf;rotation=90;" parent="iKn1sgR2FlLDsDJ27ltW-1" vertex="1">
          <mxGeometry x="560" y="260" width="80" height="40" as="geometry" />
        </mxCell>
        <mxCell id="iKn1sgR2FlLDsDJ27ltW-37" value="" style="endArrow=none;html=1;strokeWidth=2;entryX=0;entryY=0.5;entryDx=0;entryDy=0;exitX=1;exitY=0.5;exitDx=0;exitDy=0;" parent="iKn1sgR2FlLDsDJ27ltW-1" source="iKn1sgR2FlLDsDJ27ltW-18" target="iKn1sgR2FlLDsDJ27ltW-32" edge="1">
          <mxGeometry width="50" height="50" relative="1" as="geometry">
            <mxPoint x="400" y="430" as="sourcePoint" />
            <mxPoint x="450" y="380" as="targetPoint" />
          </mxGeometry>
        </mxCell>
        <mxCell id="iKn1sgR2FlLDsDJ27ltW-38" value="" style="endArrow=none;html=1;strokeWidth=2;entryX=1;entryY=0.5;entryDx=0;entryDy=0;exitX=0;exitY=0.5;exitDx=0;exitDy=0;" parent="iKn1sgR2FlLDsDJ27ltW-1" source="iKn1sgR2FlLDsDJ27ltW-36" target="iKn1sgR2FlLDsDJ27ltW-19" edge="1">
          <mxGeometry width="50" height="50" relative="1" as="geometry">
            <mxPoint x="520" y="515" as="sourcePoint" />
            <mxPoint x="526" y="370" as="targetPoint" />
          </mxGeometry>
        </mxCell>
        <mxCell id="iKn1sgR2FlLDsDJ27ltW-18" value="" style="ellipse;whiteSpace=wrap;html=1;aspect=fixed;fillColor=#fff2cc;strokeColor=#d6b656;" parent="iKn1sgR2FlLDsDJ27ltW-1" vertex="1">
          <mxGeometry x="565" y="210" width="30" height="30" as="geometry" />
        </mxCell>
        <mxCell id="iKn1sgR2FlLDsDJ27ltW-19" value="" style="ellipse;whiteSpace=wrap;html=1;aspect=fixed;fillColor=#fff2cc;strokeColor=#d6b656;" parent="iKn1sgR2FlLDsDJ27ltW-1" vertex="1">
          <mxGeometry x="565" y="320" width="30" height="30" as="geometry" />
        </mxCell>
        <mxCell id="iKn1sgR2FlLDsDJ27ltW-32" value="" style="ellipse;whiteSpace=wrap;html=1;aspect=fixed;fillColor=#fff2cc;strokeColor=#d6b656;" parent="iKn1sgR2FlLDsDJ27ltW-1" vertex="1">
          <mxGeometry x="595" y="65" width="30" height="30" as="geometry" />
        </mxCell>
        <mxCell id="iKn1sgR2FlLDsDJ27ltW-36" value="" style="ellipse;whiteSpace=wrap;html=1;aspect=fixed;fillColor=#fff2cc;strokeColor=#d6b656;" parent="iKn1sgR2FlLDsDJ27ltW-1" vertex="1">
          <mxGeometry x="595" y="455" width="30" height="30" as="geometry" />
        </mxCell>
      </root>
    </mxGraphModel>
  </diagram>
  <diagram id="qvUsWLYOtkVQp4LK9z1d" name="Half H-Bot">
    <mxGraphModel dx="946" dy="645" grid="1" gridSize="10" guides="1" tooltips="1" connect="1" arrows="1" fold="1" page="1" pageScale="1" pageWidth="850" pageHeight="1100" math="0" shadow="0">
      <root>
        <mxCell id="0" />
        <mxCell id="1" parent="0" />
        <mxCell id="uJGuNHqtRb93jzrBXa-M-43" value="" style="rounded=1;whiteSpace=wrap;html=1;fillColor=#e1d5e7;strokeColor=#9673a6;rotation=90;" parent="1" vertex="1">
          <mxGeometry x="470" y="759.0699999999999" width="305" height="30.93" as="geometry" />
        </mxCell>
        <mxCell id="2a_7Dyx7VJKK6zJ8yf9o-3" value="" style="rounded=1;whiteSpace=wrap;html=1;fillColor=#e1d5e7;strokeColor=#9673a6;" parent="1" vertex="1">
          <mxGeometry x="95" y="260" width="500" height="40" as="geometry" />
        </mxCell>
        <mxCell id="uJGuNHqtRb93jzrBXa-M-39" value="" style="rounded=1;whiteSpace=wrap;html=1;fillColor=#e1d5e7;strokeColor=#9673a6;rotation=90;" parent="1" vertex="1">
          <mxGeometry x="-80" y="270" width="305" height="30.93" as="geometry" />
        </mxCell>
        <mxCell id="uJGuNHqtRb93jzrBXa-M-42" value="" style="rounded=1;whiteSpace=wrap;html=1;fillColor=#dae8fc;strokeColor=#6c8ebf;rotation=90;" parent="1" vertex="1">
          <mxGeometry x="50" y="260" width="80" height="40" as="geometry" />
        </mxCell>
        <mxCell id="2a_7Dyx7VJKK6zJ8yf9o-1" value="" style="rounded=1;whiteSpace=wrap;html=1;fillColor=#ffe6cc;strokeColor=#d79b00;labelPosition=center;verticalLabelPosition=middle;align=center;verticalAlign=middle;direction=south;" parent="1" vertex="1">
          <mxGeometry x="40" y="40" width="80" height="80" as="geometry" />
        </mxCell>
        <mxCell id="2a_7Dyx7VJKK6zJ8yf9o-4" value="" style="endArrow=none;html=1;exitX=1;exitY=0.5;exitDx=0;exitDy=0;entryX=0;entryY=0.5;entryDx=0;entryDy=0;strokeWidth=2;" parent="1" source="2a_7Dyx7VJKK6zJ8yf9o-2" target="2a_7Dyx7VJKK6zJ8yf9o-6" edge="1">
          <mxGeometry width="50" height="50" relative="1" as="geometry">
            <mxPoint x="220" y="190" as="sourcePoint" />
            <mxPoint x="630" y="190" as="targetPoint" />
          </mxGeometry>
        </mxCell>
        <mxCell id="2a_7Dyx7VJKK6zJ8yf9o-12" style="rounded=0;orthogonalLoop=1;jettySize=auto;html=1;exitX=1;exitY=0.5;exitDx=0;exitDy=0;entryX=0;entryY=0.5;entryDx=0;entryDy=0;endArrow=none;endFill=0;strokeWidth=2;" parent="1" source="2a_7Dyx7VJKK6zJ8yf9o-11" target="2a_7Dyx7VJKK6zJ8yf9o-7" edge="1">
          <mxGeometry relative="1" as="geometry" />
        </mxCell>
        <mxCell id="2a_7Dyx7VJKK6zJ8yf9o-13" value="" style="endArrow=none;html=1;exitX=0.5;exitY=0;exitDx=0;exitDy=0;entryX=0.5;entryY=1;entryDx=0;entryDy=0;strokeWidth=2;" parent="1" source="2a_7Dyx7VJKK6zJ8yf9o-7" target="2a_7Dyx7VJKK6zJ8yf9o-9" edge="1">
          <mxGeometry width="50" height="50" relative="1" as="geometry">
            <mxPoint x="360" y="390" as="sourcePoint" />
            <mxPoint x="410" y="340" as="targetPoint" />
          </mxGeometry>
        </mxCell>
        <mxCell id="2a_7Dyx7VJKK6zJ8yf9o-14" value="" style="endArrow=none;html=1;exitX=1;exitY=0.5;exitDx=0;exitDy=0;entryX=1;entryY=0.5;entryDx=0;entryDy=0;strokeWidth=2;" parent="1" source="2a_7Dyx7VJKK6zJ8yf9o-9" target="2a_7Dyx7VJKK6zJ8yf9o-8" edge="1">
          <mxGeometry width="50" height="50" relative="1" as="geometry">
            <mxPoint x="360" y="390" as="sourcePoint" />
            <mxPoint x="410" y="340" as="targetPoint" />
          </mxGeometry>
        </mxCell>
        <mxCell id="2a_7Dyx7VJKK6zJ8yf9o-15" value="" style="endArrow=none;html=1;entryX=0.5;entryY=0;entryDx=0;entryDy=0;exitX=1;exitY=0;exitDx=0;exitDy=0;strokeWidth=2;" parent="1" source="2a_7Dyx7VJKK6zJ8yf9o-19" target="2a_7Dyx7VJKK6zJ8yf9o-8" edge="1">
          <mxGeometry width="50" height="50" relative="1" as="geometry">
            <mxPoint x="360" y="390" as="sourcePoint" />
            <mxPoint x="410" y="340" as="targetPoint" />
          </mxGeometry>
        </mxCell>
        <mxCell id="2a_7Dyx7VJKK6zJ8yf9o-16" value="" style="rounded=1;whiteSpace=wrap;html=1;fillColor=#dae8fc;strokeColor=#6c8ebf;" parent="1" vertex="1">
          <mxGeometry x="285" y="250" width="120" height="60" as="geometry" />
        </mxCell>
        <mxCell id="2a_7Dyx7VJKK6zJ8yf9o-17" value="" style="rounded=1;whiteSpace=wrap;html=1;fillColor=#d5e8d4;strokeColor=#82b366;" parent="1" vertex="1">
          <mxGeometry x="300" y="240" width="15" height="30" as="geometry" />
        </mxCell>
        <mxCell id="2a_7Dyx7VJKK6zJ8yf9o-18" value="" style="endArrow=none;html=1;entryX=0;entryY=0;entryDx=0;entryDy=0;exitX=0.5;exitY=1;exitDx=0;exitDy=0;strokeWidth=2;" parent="1" source="2a_7Dyx7VJKK6zJ8yf9o-6" target="2a_7Dyx7VJKK6zJ8yf9o-17" edge="1">
          <mxGeometry width="50" height="50" relative="1" as="geometry">
            <mxPoint x="110" y="240" as="sourcePoint" />
            <mxPoint x="610" y="240" as="targetPoint" />
          </mxGeometry>
        </mxCell>
        <mxCell id="2a_7Dyx7VJKK6zJ8yf9o-19" value="" style="rounded=1;whiteSpace=wrap;html=1;fillColor=#d5e8d4;strokeColor=#82b366;" parent="1" vertex="1">
          <mxGeometry x="378" y="240" width="15" height="30" as="geometry" />
        </mxCell>
        <mxCell id="2a_7Dyx7VJKK6zJ8yf9o-2" value="" style="ellipse;whiteSpace=wrap;html=1;aspect=fixed;fillColor=#fff2cc;strokeColor=#d6b656;" parent="1" vertex="1">
          <mxGeometry x="65" y="65" width="30" height="30" as="geometry" />
        </mxCell>
        <mxCell id="2a_7Dyx7VJKK6zJ8yf9o-6" value="" style="ellipse;whiteSpace=wrap;html=1;aspect=fixed;fillColor=#fff2cc;strokeColor=#d6b656;" parent="1" vertex="1">
          <mxGeometry x="95" y="210" width="30" height="30" as="geometry" />
        </mxCell>
        <mxCell id="2a_7Dyx7VJKK6zJ8yf9o-7" value="" style="ellipse;whiteSpace=wrap;html=1;aspect=fixed;fillColor=#fff2cc;strokeColor=#d6b656;" parent="1" vertex="1">
          <mxGeometry x="95" y="320" width="30" height="30" as="geometry" />
        </mxCell>
        <mxCell id="2a_7Dyx7VJKK6zJ8yf9o-8" value="" style="ellipse;whiteSpace=wrap;html=1;aspect=fixed;fillColor=#fff2cc;strokeColor=#d6b656;" parent="1" vertex="1">
          <mxGeometry x="595" y="240" width="30" height="30" as="geometry" />
        </mxCell>
        <mxCell id="2a_7Dyx7VJKK6zJ8yf9o-9" value="" style="ellipse;whiteSpace=wrap;html=1;aspect=fixed;fillColor=#fff2cc;strokeColor=#d6b656;" parent="1" vertex="1">
          <mxGeometry x="595" y="290" width="30" height="30" as="geometry" />
        </mxCell>
        <mxCell id="2a_7Dyx7VJKK6zJ8yf9o-11" value="" style="ellipse;whiteSpace=wrap;html=1;aspect=fixed;fillColor=#fff2cc;strokeColor=#d6b656;" parent="1" vertex="1">
          <mxGeometry x="65" y="450" width="30" height="30" as="geometry" />
        </mxCell>
        <mxCell id="uJGuNHqtRb93jzrBXa-M-2" value="Stepper" style="text;html=1;strokeColor=#d79b00;fillColor=#ffe6cc;align=center;verticalAlign=middle;whiteSpace=wrap;rounded=0;" parent="1" vertex="1">
          <mxGeometry x="520" y="80" width="80" height="30" as="geometry" />
        </mxCell>
        <mxCell id="uJGuNHqtRb93jzrBXa-M-3" value="&lt;font style=&quot;font-size: 20px&quot;&gt;&lt;b&gt;Half H-Bot&lt;br&gt;&lt;/b&gt;&lt;/font&gt;" style="text;html=1;align=center;verticalAlign=middle;whiteSpace=wrap;rounded=0;fillColor=#f5f5f5;strokeColor=#666666;fontColor=#333333;" parent="1" vertex="1">
          <mxGeometry x="235" y="45" width="220" height="70" as="geometry" />
        </mxCell>
        <mxCell id="uJGuNHqtRb93jzrBXa-M-4" value="Linear Guide" style="text;html=1;strokeColor=#9673a6;fillColor=#e1d5e7;align=center;verticalAlign=middle;whiteSpace=wrap;rounded=0;" parent="1" vertex="1">
          <mxGeometry x="520" y="200" width="80" height="30" as="geometry" />
        </mxCell>
        <mxCell id="uJGuNHqtRb93jzrBXa-M-5" value="Carriage" style="text;html=1;strokeColor=#6c8ebf;fillColor=#dae8fc;align=center;verticalAlign=middle;whiteSpace=wrap;rounded=0;" parent="1" vertex="1">
          <mxGeometry x="520" y="160" width="80" height="30" as="geometry" />
        </mxCell>
        <mxCell id="uJGuNHqtRb93jzrBXa-M-6" value="Attachments" style="text;html=1;strokeColor=#82b366;fillColor=#d5e8d4;align=center;verticalAlign=middle;whiteSpace=wrap;rounded=0;" parent="1" vertex="1">
          <mxGeometry x="520" y="120" width="80" height="30" as="geometry" />
        </mxCell>
        <mxCell id="uJGuNHqtRb93jzrBXa-M-8" value="" style="endArrow=classic;html=1;strokeWidth=2;" parent="1" edge="1">
          <mxGeometry width="50" height="50" relative="1" as="geometry">
            <mxPoint x="141" y="360" as="sourcePoint" />
            <mxPoint x="271" y="360" as="targetPoint" />
          </mxGeometry>
        </mxCell>
        <mxCell id="uJGuNHqtRb93jzrBXa-M-9" value="Horizontal" style="edgeLabel;html=1;align=center;verticalAlign=middle;resizable=0;points=[];" parent="uJGuNHqtRb93jzrBXa-M-8" vertex="1" connectable="0">
          <mxGeometry x="0.3231" y="2" relative="1" as="geometry">
            <mxPoint x="-18.5" as="offset" />
          </mxGeometry>
        </mxCell>
        <mxCell id="uJGuNHqtRb93jzrBXa-M-10" value="" style="endArrow=classic;html=1;strokeWidth=2;" parent="1" edge="1">
          <mxGeometry width="50" height="50" relative="1" as="geometry">
            <mxPoint x="141" y="360" as="sourcePoint" />
            <mxPoint x="141" y="480" as="targetPoint" />
          </mxGeometry>
        </mxCell>
        <mxCell id="uJGuNHqtRb93jzrBXa-M-11" value="Vertical" style="edgeLabel;html=1;align=center;verticalAlign=middle;resizable=0;points=[];" parent="uJGuNHqtRb93jzrBXa-M-10" vertex="1" connectable="0">
          <mxGeometry x="0.4" y="-2" relative="1" as="geometry">
            <mxPoint x="1" y="-27" as="offset" />
          </mxGeometry>
        </mxCell>
        <mxCell id="uJGuNHqtRb93jzrBXa-M-12" value="" style="rounded=1;whiteSpace=wrap;html=1;fillColor=#ffe6cc;strokeColor=#d79b00;labelPosition=center;verticalLabelPosition=middle;align=center;verticalAlign=middle;direction=south;" parent="1" vertex="1">
          <mxGeometry x="575" y="530" width="80" height="80" as="geometry" />
        </mxCell>
        <mxCell id="uJGuNHqtRb93jzrBXa-M-13" value="" style="rounded=1;whiteSpace=wrap;html=1;fillColor=#e1d5e7;strokeColor=#9673a6;" parent="1" vertex="1">
          <mxGeometry x="100" y="750" width="500" height="40" as="geometry" />
        </mxCell>
        <mxCell id="uJGuNHqtRb93jzrBXa-M-14" value="" style="endArrow=none;html=1;strokeWidth=2;entryX=1;entryY=0.5;entryDx=0;entryDy=0;exitX=0;exitY=0.5;exitDx=0;exitDy=0;" parent="1" source="uJGuNHqtRb93jzrBXa-M-24" target="uJGuNHqtRb93jzrBXa-M-25" edge="1">
          <mxGeometry width="50" height="50" relative="1" as="geometry">
            <mxPoint x="675" y="600" as="sourcePoint" />
            <mxPoint x="625" y="680" as="targetPoint" />
          </mxGeometry>
        </mxCell>
        <mxCell id="uJGuNHqtRb93jzrBXa-M-15" value="" style="endArrow=none;html=1;strokeWidth=2;exitX=1;exitY=0.5;exitDx=0;exitDy=0;entryX=1;entryY=0.5;entryDx=0;entryDy=0;" parent="1" source="uJGuNHqtRb93jzrBXa-M-24" target="uJGuNHqtRb93jzrBXa-M-29" edge="1">
          <mxGeometry width="50" height="50" relative="1" as="geometry">
            <mxPoint x="545" y="570" as="sourcePoint" />
            <mxPoint x="565" y="960" as="targetPoint" />
          </mxGeometry>
        </mxCell>
        <mxCell id="uJGuNHqtRb93jzrBXa-M-16" style="rounded=0;orthogonalLoop=1;jettySize=auto;html=1;entryX=1;entryY=0.5;entryDx=0;entryDy=0;endArrow=none;endFill=0;strokeWidth=2;exitX=0;exitY=0.5;exitDx=0;exitDy=0;" parent="1" source="uJGuNHqtRb93jzrBXa-M-29" target="uJGuNHqtRb93jzrBXa-M-26" edge="1">
          <mxGeometry relative="1" as="geometry">
            <mxPoint x="655" y="955" as="sourcePoint" />
          </mxGeometry>
        </mxCell>
        <mxCell id="uJGuNHqtRb93jzrBXa-M-17" value="" style="endArrow=none;html=1;entryX=0.5;entryY=1;entryDx=0;entryDy=0;strokeWidth=2;exitX=0.5;exitY=0;exitDx=0;exitDy=0;" parent="1" source="uJGuNHqtRb93jzrBXa-M-26" target="uJGuNHqtRb93jzrBXa-M-28" edge="1">
          <mxGeometry width="50" height="50" relative="1" as="geometry">
            <mxPoint x="-240" y="950" as="sourcePoint" />
            <mxPoint x="-240" y="880" as="targetPoint" />
          </mxGeometry>
        </mxCell>
        <mxCell id="uJGuNHqtRb93jzrBXa-M-18" value="" style="endArrow=none;html=1;exitX=0;exitY=0.5;exitDx=0;exitDy=0;entryX=0;entryY=0.5;entryDx=0;entryDy=0;strokeWidth=2;" parent="1" source="uJGuNHqtRb93jzrBXa-M-28" target="uJGuNHqtRb93jzrBXa-M-27" edge="1">
          <mxGeometry width="50" height="50" relative="1" as="geometry">
            <mxPoint x="-290" y="930" as="sourcePoint" />
            <mxPoint x="-240" y="880" as="targetPoint" />
          </mxGeometry>
        </mxCell>
        <mxCell id="uJGuNHqtRb93jzrBXa-M-19" value="" style="endArrow=none;html=1;entryX=0.5;entryY=0;entryDx=0;entryDy=0;strokeWidth=2;exitX=0;exitY=0;exitDx=0;exitDy=0;" parent="1" source="uJGuNHqtRb93jzrBXa-M-21" target="uJGuNHqtRb93jzrBXa-M-27" edge="1">
          <mxGeometry width="50" height="50" relative="1" as="geometry">
            <mxPoint x="305" y="750" as="sourcePoint" />
            <mxPoint x="315" y="870" as="targetPoint" />
          </mxGeometry>
        </mxCell>
        <mxCell id="uJGuNHqtRb93jzrBXa-M-20" value="" style="rounded=1;whiteSpace=wrap;html=1;fillColor=#dae8fc;strokeColor=#6c8ebf;" parent="1" vertex="1">
          <mxGeometry x="290" y="740" width="120" height="60" as="geometry" />
        </mxCell>
        <mxCell id="uJGuNHqtRb93jzrBXa-M-21" value="" style="rounded=1;whiteSpace=wrap;html=1;fillColor=#d5e8d4;strokeColor=#82b366;" parent="1" vertex="1">
          <mxGeometry x="305" y="730" width="15" height="30" as="geometry" />
        </mxCell>
        <mxCell id="uJGuNHqtRb93jzrBXa-M-22" value="" style="endArrow=none;html=1;exitX=0.5;exitY=1;exitDx=0;exitDy=0;strokeWidth=2;entryX=1;entryY=0;entryDx=0;entryDy=0;" parent="1" source="uJGuNHqtRb93jzrBXa-M-25" target="uJGuNHqtRb93jzrBXa-M-23" edge="1">
          <mxGeometry width="50" height="50" relative="1" as="geometry">
            <mxPoint x="525" y="720" as="sourcePoint" />
            <mxPoint x="115" y="700" as="targetPoint" />
          </mxGeometry>
        </mxCell>
        <mxCell id="uJGuNHqtRb93jzrBXa-M-23" value="" style="rounded=1;whiteSpace=wrap;html=1;fillColor=#d5e8d4;strokeColor=#82b366;" parent="1" vertex="1">
          <mxGeometry x="383" y="730" width="15" height="30" as="geometry" />
        </mxCell>
        <mxCell id="uJGuNHqtRb93jzrBXa-M-24" value="" style="ellipse;whiteSpace=wrap;html=1;aspect=fixed;fillColor=#fff2cc;strokeColor=#d6b656;" parent="1" vertex="1">
          <mxGeometry x="600" y="555" width="30" height="30" as="geometry" />
        </mxCell>
        <mxCell id="uJGuNHqtRb93jzrBXa-M-25" value="" style="ellipse;whiteSpace=wrap;html=1;aspect=fixed;fillColor=#fff2cc;strokeColor=#d6b656;" parent="1" vertex="1">
          <mxGeometry x="570" y="700" width="30" height="30" as="geometry" />
        </mxCell>
        <mxCell id="uJGuNHqtRb93jzrBXa-M-26" value="" style="ellipse;whiteSpace=wrap;html=1;aspect=fixed;fillColor=#fff2cc;strokeColor=#d6b656;" parent="1" vertex="1">
          <mxGeometry x="570" y="810" width="30" height="30" as="geometry" />
        </mxCell>
        <mxCell id="uJGuNHqtRb93jzrBXa-M-27" value="" style="ellipse;whiteSpace=wrap;html=1;aspect=fixed;fillColor=#fff2cc;strokeColor=#d6b656;" parent="1" vertex="1">
          <mxGeometry x="65" y="730" width="30" height="30" as="geometry" />
        </mxCell>
        <mxCell id="uJGuNHqtRb93jzrBXa-M-28" value="" style="ellipse;whiteSpace=wrap;html=1;aspect=fixed;fillColor=#fff2cc;strokeColor=#d6b656;" parent="1" vertex="1">
          <mxGeometry x="65" y="780" width="30" height="30" as="geometry" />
        </mxCell>
        <mxCell id="uJGuNHqtRb93jzrBXa-M-29" value="" style="ellipse;whiteSpace=wrap;html=1;aspect=fixed;fillColor=#fff2cc;strokeColor=#d6b656;" parent="1" vertex="1">
          <mxGeometry x="600" y="940" width="30" height="30" as="geometry" />
        </mxCell>
        <mxCell id="uJGuNHqtRb93jzrBXa-M-30" value="Stepper" style="text;html=1;strokeColor=#d79b00;fillColor=#ffe6cc;align=center;verticalAlign=middle;whiteSpace=wrap;rounded=0;" parent="1" vertex="1">
          <mxGeometry x="100" y="570" width="80" height="30" as="geometry" />
        </mxCell>
        <mxCell id="uJGuNHqtRb93jzrBXa-M-31" value="&lt;font style=&quot;font-size: 20px&quot;&gt;&lt;b&gt;Mirrored Half H-Bot&lt;br&gt;&lt;/b&gt;&lt;/font&gt;" style="text;html=1;align=center;verticalAlign=middle;whiteSpace=wrap;rounded=0;fillColor=#f5f5f5;strokeColor=#666666;fontColor=#333333;" parent="1" vertex="1">
          <mxGeometry x="240" y="530" width="220" height="70" as="geometry" />
        </mxCell>
        <mxCell id="uJGuNHqtRb93jzrBXa-M-32" value="Linear Guide" style="text;html=1;strokeColor=#9673a6;fillColor=#e1d5e7;align=center;verticalAlign=middle;whiteSpace=wrap;rounded=0;" parent="1" vertex="1">
          <mxGeometry x="100" y="690" width="80" height="30" as="geometry" />
        </mxCell>
        <mxCell id="uJGuNHqtRb93jzrBXa-M-33" value="Carriage" style="text;html=1;strokeColor=#6c8ebf;fillColor=#dae8fc;align=center;verticalAlign=middle;whiteSpace=wrap;rounded=0;" parent="1" vertex="1">
          <mxGeometry x="100" y="650" width="80" height="30" as="geometry" />
        </mxCell>
        <mxCell id="uJGuNHqtRb93jzrBXa-M-34" value="Attachments" style="text;html=1;strokeColor=#82b366;fillColor=#d5e8d4;align=center;verticalAlign=middle;whiteSpace=wrap;rounded=0;" parent="1" vertex="1">
          <mxGeometry x="100" y="610" width="80" height="30" as="geometry" />
        </mxCell>
        <mxCell id="uJGuNHqtRb93jzrBXa-M-35" value="" style="endArrow=classic;html=1;strokeWidth=2;" parent="1" edge="1">
          <mxGeometry width="50" height="50" relative="1" as="geometry">
            <mxPoint x="546" y="842" as="sourcePoint" />
            <mxPoint x="425" y="842" as="targetPoint" />
          </mxGeometry>
        </mxCell>
        <mxCell id="uJGuNHqtRb93jzrBXa-M-36" value="Horizontal" style="edgeLabel;html=1;align=center;verticalAlign=middle;resizable=0;points=[];" parent="uJGuNHqtRb93jzrBXa-M-35" vertex="1" connectable="0">
          <mxGeometry x="0.3231" y="2" relative="1" as="geometry">
            <mxPoint x="19" y="-4" as="offset" />
          </mxGeometry>
        </mxCell>
        <mxCell id="uJGuNHqtRb93jzrBXa-M-37" value="" style="endArrow=classic;html=1;strokeWidth=2;" parent="1" edge="1">
          <mxGeometry width="50" height="50" relative="1" as="geometry">
            <mxPoint x="546" y="842" as="sourcePoint" />
            <mxPoint x="546" y="962" as="targetPoint" />
          </mxGeometry>
        </mxCell>
        <mxCell id="uJGuNHqtRb93jzrBXa-M-38" value="Vertical" style="edgeLabel;html=1;align=center;verticalAlign=middle;resizable=0;points=[];" parent="uJGuNHqtRb93jzrBXa-M-37" vertex="1" connectable="0">
          <mxGeometry x="0.4" y="-2" relative="1" as="geometry">
            <mxPoint x="1" y="-27" as="offset" />
          </mxGeometry>
        </mxCell>
        <mxCell id="uJGuNHqtRb93jzrBXa-M-41" value="" style="endArrow=none;html=1;exitX=0;exitY=0.5;exitDx=0;exitDy=0;entryX=0;entryY=0.5;entryDx=0;entryDy=0;strokeWidth=2;" parent="1" source="2a_7Dyx7VJKK6zJ8yf9o-2" target="2a_7Dyx7VJKK6zJ8yf9o-11" edge="1">
          <mxGeometry width="50" height="50" relative="1" as="geometry">
            <mxPoint x="65" y="80" as="sourcePoint" />
            <mxPoint x="65" y="465" as="targetPoint" />
          </mxGeometry>
        </mxCell>
        <mxCell id="uJGuNHqtRb93jzrBXa-M-44" value="" style="rounded=1;whiteSpace=wrap;html=1;fillColor=#dae8fc;strokeColor=#6c8ebf;rotation=90;" parent="1" vertex="1">
          <mxGeometry x="560" y="750" width="80" height="40" as="geometry" />
        </mxCell>
      </root>
    </mxGraphModel>
  </diagram>
  <diagram id="x4p_VknIY6doKHYAMDXu" name="Equations">
    <mxGraphModel dx="946" dy="645" grid="1" gridSize="10" guides="1" tooltips="1" connect="1" arrows="1" fold="1" page="1" pageScale="1" pageWidth="850" pageHeight="1100" math="0" shadow="0">
      <root>
        <mxCell id="ZkCDOGt1DHJ2Fmp8vtob-0" />
        <mxCell id="ZkCDOGt1DHJ2Fmp8vtob-1" parent="ZkCDOGt1DHJ2Fmp8vtob-0" />
        <mxCell id="ZkCDOGt1DHJ2Fmp8vtob-2" value="" style="rounded=1;whiteSpace=wrap;html=1;" parent="ZkCDOGt1DHJ2Fmp8vtob-1" vertex="1">
          <mxGeometry x="100" y="80" width="440" height="150" as="geometry" />
        </mxCell>
        <mxCell id="ZkCDOGt1DHJ2Fmp8vtob-3" value="Horizontal = 1/2(A-B)" style="text;html=1;strokeColor=#6c8ebf;fillColor=#dae8fc;align=center;verticalAlign=middle;whiteSpace=wrap;rounded=0;" parent="ZkCDOGt1DHJ2Fmp8vtob-1" vertex="1">
          <mxGeometry x="140" y="130" width="160" height="30" as="geometry" />
        </mxCell>
        <mxCell id="ZkCDOGt1DHJ2Fmp8vtob-4" value="&lt;span&gt;Vertical = 1/2(A+B)&lt;/span&gt;" style="text;html=1;strokeColor=#82b366;fillColor=#d5e8d4;align=center;verticalAlign=middle;whiteSpace=wrap;rounded=0;" parent="ZkCDOGt1DHJ2Fmp8vtob-1" vertex="1">
          <mxGeometry x="140" y="160" width="160" height="30" as="geometry" />
        </mxCell>
        <mxCell id="ZkCDOGt1DHJ2Fmp8vtob-5" value="X = 1/2(A-B)&lt;br&gt;Y = 1/2(C-D)" style="text;html=1;strokeColor=#6c8ebf;fillColor=#dae8fc;align=center;verticalAlign=middle;whiteSpace=wrap;rounded=0;" parent="ZkCDOGt1DHJ2Fmp8vtob-1" vertex="1">
          <mxGeometry x="345" y="130" width="160" height="30" as="geometry" />
        </mxCell>
        <mxCell id="vYtwi6PcDzOd5HazrcgD-0" value="&lt;span&gt;Z = 1/4(A+B+C+D)&lt;/span&gt;" style="text;html=1;strokeColor=#82b366;fillColor=#d5e8d4;align=center;verticalAlign=middle;whiteSpace=wrap;rounded=0;" parent="ZkCDOGt1DHJ2Fmp8vtob-1" vertex="1">
          <mxGeometry x="345" y="160" width="160" height="30" as="geometry" />
        </mxCell>
        <mxCell id="vYtwi6PcDzOd5HazrcgD-1" value="Per Unit" style="text;html=1;strokeColor=#b85450;fillColor=#f8cecc;align=center;verticalAlign=middle;whiteSpace=wrap;rounded=0;" parent="ZkCDOGt1DHJ2Fmp8vtob-1" vertex="1">
          <mxGeometry x="185" y="100" width="70" height="20" as="geometry" />
        </mxCell>
        <mxCell id="vYtwi6PcDzOd5HazrcgD-3" value="Combined" style="text;html=1;strokeColor=#b85450;fillColor=#f8cecc;align=center;verticalAlign=middle;whiteSpace=wrap;rounded=0;" parent="ZkCDOGt1DHJ2Fmp8vtob-1" vertex="1">
          <mxGeometry x="390" y="100" width="70" height="20" as="geometry" />
        </mxCell>
      </root>
    </mxGraphModel>
  </diagram>
</mxfile>
